<?xml version="1.0" encoding="UTF-8"?>
<svg xmlns="http://www.w3.org/2000/svg" xmlns:xlink="http://www.w3.org/1999/xlink" width="32pt" height="32pt" viewBox="0 0 32 32" version="1.1">
<g id="surface1">
<path style=" stroke:none;fill-rule:nonzero;fill:rgb(0%,0%,0%);fill-opacity:1;" d="M 16 3 C 8.820312 3 3 8.820312 3 16 C 3 23.179688 8.820312 29 16 29 C 23.179688 29 29 23.179688 29 16 C 29 8.820312 23.179688 3 16 3 Z M 16 27.917969 C 9.429688 27.917969 4.082031 22.574219 4.082031 16 C 4.082031 9.429688 9.425781 4.082031 16 4.082031 C 22.570312 4.082031 27.917969 9.425781 27.917969 16 C 27.917969 22.570312 22.570312 27.917969 16 27.917969 Z M 16 27.917969 "/>
<path style=" stroke:none;fill-rule:nonzero;fill:rgb(0%,0%,0%);fill-opacity:1;" d="M 16 6 C 10.476562 6 6 10.476562 6 16 C 6 21.523438 10.476562 26 16 26 C 21.523438 26 26 21.523438 26 16 C 26 10.476562 21.523438 6 16 6 Z M 16 6 "/>
</g>
</svg>
